<svg width="24" height="24" viewBox="0 0 24 24" fill="currentColor" xmlns="http://www.w3.org/2000/svg">
<path d="M15.81 20.18C15.55 20.18 15.28 20.17 14.99 20.14C14.47 20.1 13.88 20 13.27 19.85L11.59 19.45C6.98001 18.36 5.47001 15.92 6.55001 11.32L7.53001 7.13001C7.75001 6.18002 8.01001 5.41002 8.33001 4.77002C10.05 1.22002 13.34 1.54001 15.68 2.09001L17.35 2.48001C19.69 3.03001 21.17 3.90001 22 5.23002C22.82 6.56002 22.95 8.27001 22.4 10.61L21.42 14.79C20.56 18.45 18.77 20.18 15.81 20.18ZM13.12 3.25001C11.45 3.25001 10.39 3.94002 9.68001 5.42002C9.42001 5.96002 9.19001 6.63001 8.99001 7.47001L8.01001 11.66C7.12001 15.44 8.15001 17.09 11.93 17.99L13.61 18.39C14.15 18.52 14.66 18.6 15.12 18.64C17.84 18.91 19.19 17.72 19.95 14.45L20.93 10.27C21.38 8.34002 21.32 6.99002 20.72 6.02001C20.12 5.05001 18.94 4.39002 17 3.94002L15.33 3.55001C14.5 3.35001 13.76 3.25001 13.12 3.25001Z" fill="currentColor"/>
<path d="M8.32999 22.25C5.75999 22.25 4.11999 20.71 3.06999 17.46L1.78999 13.5101C0.369991 9.11005 1.63999 6.63005 6.01999 5.21005L7.59999 4.70005C8.11999 4.54005 8.50999 4.43005 8.85999 4.37005C9.14999 4.31005 9.42999 4.42005 9.59999 4.65005C9.76999 4.88005 9.79999 5.18005 9.67999 5.44005C9.41999 5.97005 9.18999 6.64005 8.99999 7.48005L8.01999 11.6701C7.12999 15.4501 8.15999 17.1001 11.94 18.0001L13.62 18.4001C14.16 18.5301 14.67 18.6101 15.13 18.6501C15.45 18.68 15.71 18.9 15.8 19.21C15.88 19.5201 15.76 19.8401 15.5 20.0201C14.84 20.4701 14.01 20.85 12.96 21.1901L11.38 21.71C10.23 22.07 9.22999 22.25 8.32999 22.25ZM7.77999 6.22005L6.48999 6.64005C2.91999 7.79005 2.06999 9.47005 3.21999 13.0501L4.49999 17.0001C5.65999 20.5701 7.33999 21.4301 10.91 20.2801L12.49 19.7601C12.55 19.7401 12.6 19.7201 12.66 19.7001L11.6 19.4501C6.98999 18.3601 5.47999 15.92 6.55999 11.3201L7.53999 7.13005C7.60999 6.81005 7.68999 6.50005 7.77999 6.22005Z" fill="currentColor"/>
<path d="M17.49 10.51C17.43 10.51 17.37 10.5 17.3 10.49L12.45 9.26002C12.05 9.16002 11.81 8.75002 11.91 8.35002C12.01 7.95002 12.42 7.71002 12.82 7.81002L17.67 9.04002C18.07 9.14002 18.31 9.55002 18.21 9.95002C18.13 10.28 17.82 10.51 17.49 10.51Z" fill="currentColor"/>
<path d="M14.56 13.89C14.5 13.89 14.44 13.88 14.37 13.87L11.46 13.13C11.06 13.03 10.82 12.62 10.92 12.22C11.02 11.82 11.43 11.58 11.83 11.68L14.74 12.42C15.14 12.52 15.38 12.93 15.28 13.33C15.2 13.67 14.9 13.89 14.56 13.89Z" fill="currentColor"/>
</svg>
